<?xml version="1.0" encoding="utf-8"?>
<!-- Generator: Adobe Illustrator 16.2.1, SVG Export Plug-In . SVG Version: 6.00 Build 0)  -->
<!DOCTYPE svg PUBLIC "-//W3C//DTD SVG 1.1//EN" "http://www.w3.org/Graphics/SVG/1.1/DTD/svg11.dtd">
<svg version="1.1" id="Capa_1" xmlns="http://www.w3.org/2000/svg" xmlns:xlink="http://www.w3.org/1999/xlink" x="0px" y="0px"
	 width="100px" height="100px" viewBox="0 0 100 100" enable-background="new 0 0 100 100" xml:space="preserve">
<path fill="#FFFFFF" d="M53.185,43.632v44.565h28.649l9.551,9.554v-9.554h6.366V43.632H53.185z M65.917,75.466v-19.1l19.101,9.55
	L65.917,75.466z"/>
<path fill="#FFFFFF" d="M2.249,2.249v44.566h6.367v9.551l9.55-9.551h28.65V2.249H2.249z M37.267,32.69
	c0,0.208-0.042,0.414-0.12,0.607c-0.336,0.812-1.266,1.199-2.08,0.865l-13.167-5.434l1.836,6.945h-7.76l-2.296-7.959h-3.473v-3.979
	v-1.593v-3.93h3.496c0.16-0.021,0.318-0.049,0.484-0.049h5.254l15.626-6.447c0.492-0.2,1.05-0.145,1.492,0.15
	c0.442,0.296,0.706,0.792,0.707,1.322V32.69z"/>
<path fill="#FFB594" d="M14.983,57.518V79.8H50V57.518H14.983z M37.399,75.646H19.89V72.41h17.51V75.646z M45.092,70.514H19.89
	v-3.236h25.202V70.514z M45.092,64.905H19.89v-3.236h25.202V64.905z"/>
<path fill="#FFB594" d="M53.185,14.055v22.283h35.015V14.055H53.185z M58.09,18.207h25.202v3.235H58.09V18.207z M58.09,23.814
	h25.202v3.235H58.09V23.814z M68.273,32.184H58.09v-3.235h10.184V32.184z M85.249,32.184h-3.913v-3.235h3.913V32.184z"/>
</svg>
