<?xml version="1.0" encoding="utf-8"?>
<!-- Generator: Adobe Illustrator 16.2.1, SVG Export Plug-In . SVG Version: 6.00 Build 0)  -->
<!DOCTYPE svg PUBLIC "-//W3C//DTD SVG 1.1//EN" "http://www.w3.org/Graphics/SVG/1.1/DTD/svg11.dtd">
<svg version="1.1" id="Capa_1" xmlns="http://www.w3.org/2000/svg" xmlns:xlink="http://www.w3.org/1999/xlink" x="0px" y="0px"
	 width="100px" height="100px" viewBox="0 0 100 100" enable-background="new 0 0 100 100" xml:space="preserve">
<path fill="#FFFFFF" d="M78.056,29.23c0-0.004-0.006-0.013-0.006-0.02h-5.982V14.9H30.54v14.311h-4.112
	c-0.003,0.007-0.006,0.013-0.006,0.02H4.512v14.599l0.7,0.35l40.621,13.788l-0.065,9.921h10.028l-0.015-9.491l39.707-15.447V29.23
	H78.056z M65.934,21.031v8.199h-29.26v-8.199H65.934z"/>
<polygon fill="#FFB594" points="59.887,71.975 41.643,71.975 41.721,60.887 7.24,49.183 7.24,67.373 7.24,85.1 93.441,85.1 
	93.441,67.373 93.441,48.13 59.877,61.19 "/>
</svg>
