<?xml version="1.0" encoding="utf-8"?>
<!-- Generator: Adobe Illustrator 16.2.1, SVG Export Plug-In . SVG Version: 6.00 Build 0)  -->
<!DOCTYPE svg PUBLIC "-//W3C//DTD SVG 1.1//EN" "http://www.w3.org/Graphics/SVG/1.1/DTD/svg11.dtd">
<svg version="1.1" id="Capa_1" xmlns="http://www.w3.org/2000/svg" xmlns:xlink="http://www.w3.org/1999/xlink" x="0px" y="0px"
	 width="100px" height="100px" viewBox="0 0 100 100" enable-background="new 0 0 100 100" xml:space="preserve">
<path fill="#FFFFFF" d="M2.213,76.176h95.574v13.697H2.213V76.176z"/>
<circle fill="#FFB594" cx="50" cy="20.055" r="12.133"/>
<path fill="#FFFFFF" d="M78.309,84.763l4.045-40.442H17.646l4.044,40.442H78.309z M50,58.476c3.351,0,6.066,2.716,6.066,6.066
	c0,3.35-2.716,6.066-6.066,6.066s-6.066-2.717-6.066-6.066C43.934,61.191,46.649,58.476,50,58.476z"/>
<path fill="#FFB594" d="M64.154,31.188H35.846c-4.467,0-8.089,4.622-8.089,9.089h44.486C72.243,35.81,68.622,31.188,64.154,31.188z"
	/>
</svg>
